<svg width="67" height="60" viewBox="0 0 67 60" fill="none" xmlns="http://www.w3.org/2000/svg">
<path d="M64.4331 8.37087C61.6477 2.71946 53.6241 -1.90443 44.2909 0.7877C39.831 2.0613 35.9399 4.79257 33.2532 8.53528C30.5665 4.79257 26.6754 2.0613 22.2155 0.7877C12.8616 -1.86333 4.85871 2.71946 2.07331 8.37087C-1.83457 16.2829 -0.213217 25.1813 6.8958 34.8195C12.4666 42.3616 20.4279 50.0064 31.9852 58.8843C32.3505 59.1659 32.8004 59.3188 33.2636 59.3188C33.7268 59.3188 34.1767 59.1659 34.542 58.8843C46.0785 50.027 54.0606 42.4438 59.6314 34.8195C66.7196 25.1813 68.341 16.2829 64.4331 8.37087Z" fill="#F9575C"/>
</svg>
