<svg width="23" height="23" viewBox="0 0 23 23" fill="none" xmlns="http://www.w3.org/2000/svg">
<path d="M2.875 10.611C4.46282 10.611 5.75 9.29132 5.75 7.66345C5.75 6.03559 4.46282 4.71594 2.875 4.71594C1.28718 4.71594 0 6.03559 0 7.66345C0 9.29132 1.28718 10.611 2.875 10.611Z" fill="#F9575C"/>
<path d="M8.04999 5.89502C9.63781 5.89502 10.925 4.57537 10.925 2.94751C10.925 1.31965 9.63781 0 8.04999 0C6.46217 0 5.17499 1.31965 5.17499 2.94751C5.17499 4.57537 6.46217 5.89502 8.04999 5.89502Z" fill="#F9575C"/>
<path d="M14.95 5.89502C16.5378 5.89502 17.825 4.57537 17.825 2.94751C17.825 1.31965 16.5378 0 14.95 0C13.3622 0 12.075 1.31965 12.075 2.94751C12.075 4.57537 13.3622 5.89502 14.95 5.89502Z" fill="#F9575C"/>
<path d="M20.125 10.611C21.7128 10.611 23 9.29132 23 7.66345C23 6.03559 21.7128 4.71594 20.125 4.71594C18.5372 4.71594 17.25 6.03559 17.25 7.66345C17.25 9.29132 18.5372 10.611 20.125 10.611Z" fill="#F9575C"/>
<path d="M17.641 13.9828C16.6405 12.7802 15.801 11.7544 14.789 10.5519C14.26 9.91519 13.5815 9.27852 12.7765 8.99556C12.65 8.9484 12.5235 8.91303 12.397 8.88945C12.1095 8.84229 11.799 8.84229 11.5 8.84229C11.201 8.84229 10.8905 8.84229 10.5915 8.90124C10.465 8.92482 10.3385 8.96019 10.212 9.00735C9.40698 9.29031 8.73998 9.92698 8.19948 10.5636C7.19898 11.7662 6.35948 12.792 5.34748 13.9946C3.84098 15.5391 1.98948 17.2486 2.33448 19.642C2.66798 20.8446 3.50748 22.0354 5.01398 22.3773C5.85348 22.5542 8.53298 21.8586 11.385 21.8586H11.592C14.444 21.8586 17.1235 22.5424 17.963 22.3773C19.4695 22.0354 20.309 20.8328 20.6425 19.642C20.999 17.2368 19.1475 15.5273 17.641 13.9828Z" fill="#F9575C"/>
</svg>
