<svg width="75" height="60" viewBox="0 0 75 60" fill="none" xmlns="http://www.w3.org/2000/svg">
<path d="M75 17.0838V47.2697C75.0002 50.3474 73.8092 53.3085 71.6712 55.5455C69.5333 57.7826 66.6105 59.1261 63.5025 59.3003L62.8125 59.3188H12.1875C9.07448 59.319 6.07939 58.1415 3.81663 56.0279C1.55388 53.9142 0.194995 51.0246 0.0187504 47.9519L0 47.2697V17.0838L36.195 35.8286C36.5977 36.0371 37.0454 36.146 37.5 36.146C37.9546 36.146 38.4023 36.0371 38.805 35.8286L75 17.0838ZM12.1875 8.75142e-08H62.8125C65.8334 -0.000359675 68.7468 1.1085 70.9876 3.11152C73.2285 5.11454 74.637 7.86895 74.94 10.8405L37.5 30.2304L0.0600001 10.8405C0.350713 7.98696 1.66144 5.32949 3.75656 3.34582C5.85169 1.36214 8.59381 0.182357 11.49 0.0185377L12.1875 8.75142e-08H62.8125H12.1875Z" fill="#F9575C"/>
</svg>
