<svg width="60" height="60" viewBox="0 0 60 60" fill="none" xmlns="http://www.w3.org/2000/svg">
<path d="M57.8203 2.85128L45.6331 0.0707656C44.3089 -0.230457 42.9495 0.453086 42.4105 1.68115L36.7856 14.6569C36.2934 15.7922 36.6215 17.1246 37.5942 17.9008L44.6956 23.6472C40.4769 32.5332 33.106 39.9248 23.9304 44.1766L18.118 37.1558C17.3212 36.1943 15.9853 35.8699 14.8368 36.3564L1.71212 41.9175C0.458242 42.462 -0.233149 43.8059 0.0715316 45.1151L2.88397 57.164C3.17693 58.4152 4.30191 59.3188 5.6261 59.3188C35.6372 59.3188 59.9999 35.279 59.9999 5.56228C59.9999 4.26471 59.0976 3.14091 57.8203 2.85128Z" fill="#F9575C"/>
</svg>
