<svg width="160" height="165" viewBox="0 0 160 165" fill="none" xmlns="http://www.w3.org/2000/svg">
<path fill-rule="evenodd" clip-rule="evenodd" d="M1.54675 38.9052C0.556364 37.9145 0 36.5711 0 35.1703C0 33.7694 0.556364 32.426 1.54675 31.4353L31.4356 1.54641C31.9264 1.05592 32.509 0.66691 33.1501 0.401577C33.7912 0.136244 34.4784 -0.000211748 35.1722 2.46634e-07C35.8661 0.000212242 36.5531 0.137089 37.1941 0.402813C37.835 0.668538 38.4174 1.05791 38.9078 1.54869C39.3983 2.03947 39.7873 2.62206 40.0527 3.26318C40.318 3.90431 40.4545 4.59141 40.4543 5.28527C40.454 5.97913 40.3172 6.66616 40.0514 7.30712C39.7857 7.94808 39.3964 8.53043 38.9056 9.02091L35.1706 12.7513L53.8454 31.4262L68.7899 16.4863C69.7805 15.4951 71.1242 14.938 72.5255 14.9376C73.2194 14.9374 73.9065 15.0738 74.5476 15.3392C75.1887 15.6045 75.7713 15.9935 76.2621 16.484C76.7529 16.9745 77.1423 17.5568 77.408 18.1978C77.6737 18.8388 77.8106 19.5258 77.8108 20.2196C77.811 20.9135 77.6745 21.6006 77.4092 22.2417C77.1439 22.8829 76.7549 23.4654 76.2644 23.9562L68.7899 31.4307L132.303 94.9435C135.937 98.5788 138.433 103.196 139.483 108.228C140.533 113.26 140.093 118.49 138.216 123.275L143.508 128.567C146.27 131.33 147.183 135.247 146.247 138.772L158.452 150.977C158.943 151.468 159.332 152.051 159.598 152.692C159.863 153.333 160 154.02 160 154.714C160 155.408 159.863 156.096 159.598 156.737C159.332 157.378 158.943 157.961 158.452 158.452C157.961 158.942 157.379 159.332 156.737 159.597C156.096 159.863 155.409 160 154.715 160C154.021 160 153.333 159.863 152.692 159.597C152.051 159.332 151.468 158.942 150.977 158.452L138.773 146.247C136.98 146.727 135.093 146.727 133.3 146.246C131.508 145.765 129.874 144.821 128.563 143.507L123.276 138.22C118.49 140.097 113.26 140.536 108.227 139.485C103.195 138.434 98.5786 135.938 94.9438 132.302L84.565 120.998L89.618 118.085L100.546 114.149L104.156 103.545L116.071 91.6286L62.329 37.887L37.8874 62.3333L48.0372 73.0556L35.7916 73.1501L31.4311 68.7895L23.9611 76.2595C23.4738 76.764 22.8909 77.1664 22.2463 77.4432C21.6018 77.72 20.9086 77.8657 20.2072 77.8718C19.5058 77.8779 18.8102 77.7442 18.161 77.4786C17.5118 77.213 16.922 76.8207 16.426 76.3247C15.93 75.8287 15.5377 75.2389 15.2721 74.5897C15.0065 73.9405 14.8728 73.2449 14.8789 72.5435C14.8849 71.842 15.0306 71.1488 15.3075 70.5043C15.5843 69.8598 15.9867 69.2769 16.4912 68.7895L31.4356 53.8451L12.7608 35.1703L9.01669 38.9052C8.02601 39.8956 6.68254 40.452 5.28172 40.452C3.8809 40.452 2.53742 39.8956 1.54675 38.9052ZM28.7143 19.2122L47.3892 37.887L37.8919 47.3842L19.2171 28.7094L28.7143 19.2122ZM101.4 125.841L99.0988 123.54L123.541 99.0939L125.842 101.395C128.222 103.774 129.856 106.797 130.544 110.091C131.232 113.386 130.943 116.809 129.714 119.942L119.943 129.713C116.81 130.943 113.387 131.231 110.094 130.543C106.8 129.855 103.779 128.221 101.4 125.841ZM132.303 132.298C131.96 132.64 131.613 132.969 131.257 133.284L135.019 137.046C135.152 137.18 135.311 137.286 135.485 137.358C135.659 137.43 135.845 137.468 136.034 137.468C136.222 137.468 136.409 137.431 136.583 137.359C136.757 137.287 136.916 137.182 137.049 137.049C137.182 136.915 137.288 136.757 137.361 136.583C137.433 136.409 137.47 136.223 137.47 136.034C137.471 135.846 137.434 135.659 137.362 135.485C137.29 135.311 137.184 135.152 137.051 135.019L133.289 131.257C132.969 131.612 132.641 131.96 132.303 132.298Z" fill="#675444"/>
<path d="M82.6427 128.15C80.9668 122.075 77.344 116.717 72.3301 112.899C67.3163 109.081 61.1882 107.013 54.8861 107.013C48.5839 107.013 42.4559 109.081 37.442 112.899C32.4281 116.717 28.8053 122.075 27.1294 128.15L23.1357 142.627C22.4186 145.227 22.3116 147.957 22.8231 150.604C23.3345 153.252 24.4505 155.745 26.0842 157.891C27.7178 160.036 29.8248 161.775 32.241 162.972C34.6572 164.169 37.3173 164.792 40.0138 164.792H69.7583C72.4548 164.792 75.1149 164.169 77.5311 162.972C79.9473 161.775 82.0543 160.036 83.6879 157.891C85.3216 155.745 86.4376 153.252 86.949 150.604C87.4605 147.957 87.3535 145.227 86.6364 142.627L82.6427 128.15ZM78.1163 153.647C77.1404 154.939 75.877 155.986 74.4263 156.704C72.9756 157.423 71.3774 157.794 69.7583 157.788H40.0138C38.3959 157.788 36.7998 157.415 35.3501 156.697C33.9003 155.978 32.636 154.935 31.6559 153.648C30.6757 152.36 30.006 150.864 29.6992 149.276C29.3923 147.687 29.4565 146.049 29.8868 144.49L33.8805 130.012C35.1488 125.415 37.8904 121.36 41.6848 118.471C45.4792 115.582 50.1168 114.017 54.8861 114.017C59.6553 114.017 64.2929 115.582 68.0873 118.471C71.8817 121.36 74.6233 125.415 75.8916 130.012L79.8853 144.49C80.3218 146.049 80.3892 147.688 80.0821 149.277C79.775 150.867 79.102 152.363 78.1163 153.648V153.647Z" fill="#675444"/>
<path d="M30.8336 111.896C31.4429 108.088 30.6349 104.011 28.5575 100.414C26.4801 96.8168 23.3531 94.0786 19.7513 92.7022C15.8942 91.2291 11.96 91.4637 8.66966 93.3625C2.12865 97.1391 0.407336 106.447 4.8333 114.111C6.91004 117.708 10.0373 120.447 13.6391 121.823C15.2345 122.445 16.9305 122.769 18.6428 122.78C20.7761 122.787 22.8733 122.229 24.7207 121.163C28.009 119.263 30.1801 115.973 30.8336 111.896ZM23.9177 110.789C23.6047 112.743 22.6462 114.273 21.2185 115.097C19.7909 115.922 17.9867 115.986 16.1373 115.28C14.0334 114.477 12.1727 112.818 10.8976 110.61C8.44643 106.364 9.02903 101.242 12.1714 99.4277C12.9613 98.9794 13.856 98.7485 14.7642 98.7585C15.6162 98.7673 16.4593 98.9317 17.2522 99.2437C19.3561 100.048 21.2168 101.706 22.4919 103.915C23.7669 106.123 24.2731 108.565 23.9177 110.789Z" fill="#675444"/>
<path d="M31.5921 97.3872C34.0787 99.3751 36.9184 100.41 39.7901 100.41C40.6502 100.41 41.5079 100.317 42.3483 100.134C49.7288 98.5296 54.2038 90.1885 52.3238 81.5403C51.4418 77.4814 49.2975 73.9204 46.286 71.5127C43.0611 68.9346 39.2412 67.9587 35.5298 68.7658C28.1495 70.3701 23.6745 78.7112 25.5542 87.3593C26.4365 91.4185 28.5808 94.9795 31.5921 97.3872V97.3872ZM37.0171 75.6095C37.3574 75.5361 37.7046 75.4994 38.0528 75.5001C39.3545 75.5001 40.6935 76.0094 41.9128 76.9842C43.6717 78.3903 44.9387 80.5371 45.4802 83.0292C46.5219 87.8211 44.4064 92.5207 40.8607 93.2915C39.2497 93.6417 37.5111 93.154 35.9655 91.9182C34.2066 90.5118 32.9396 88.365 32.3981 85.8731C31.3562 81.0799 33.4716 76.3803 37.0171 75.6095Z" fill="#675444"/>
<path d="M101.103 93.3625C97.8136 91.4637 93.8774 91.2291 90.0209 92.7022C86.4192 94.0782 83.2919 96.8168 81.2152 100.414C79.1384 104.011 78.3302 108.089 78.9391 111.896C79.5917 115.973 81.7623 119.264 85.052 121.163C86.8993 122.229 88.9966 122.787 91.1299 122.78C92.8422 122.769 94.5382 122.445 96.1337 121.823C99.7354 120.447 102.863 117.709 104.939 114.111C109.365 106.447 107.644 97.1391 101.103 93.3625ZM98.8746 110.61C97.5996 112.818 95.7388 114.477 93.6349 115.281C91.7865 115.987 89.9818 115.922 88.5542 115.097C87.1265 114.273 86.1686 112.743 85.855 110.789C85.4991 108.565 86.0051 106.124 87.2804 103.917C88.5557 101.709 90.4162 100.05 92.5201 99.2456C93.3129 98.9334 94.1561 98.7687 95.0081 98.7596C95.9163 98.7496 96.8109 98.9805 97.6009 99.4288C100.743 101.242 101.326 106.363 98.8746 110.61V110.61Z" fill="#675444"/>
<path d="M67.4238 100.134C68.2642 100.317 69.1218 100.41 69.982 100.41C72.8534 100.41 75.6942 99.3751 78.18 97.3872C81.1912 94.9798 83.3356 91.4186 84.2178 87.3596C86.0976 78.7114 81.6226 70.3703 74.2423 68.7661C70.5311 67.9594 66.711 68.9346 63.4861 71.513C60.4746 73.9204 58.3302 77.4817 57.4482 81.5404C55.5682 90.1886 60.0432 98.5297 67.4238 100.134ZM64.2919 83.0282C64.8334 80.5361 66.1003 78.3884 67.8593 76.9831C69.0788 76.0083 70.4175 75.499 71.7193 75.499C72.0674 75.4984 72.4146 75.5351 72.7549 75.6085C76.3004 76.3793 78.4159 81.0799 77.3744 85.8707C76.8325 88.3629 75.5655 90.5105 73.807 91.916C72.2616 93.1517 70.5241 93.6393 68.9118 93.2894C65.3656 92.5196 63.2501 87.8194 64.2919 83.0282V83.0282Z" fill="#675444"/>
</svg>
